<svg width="156" height="47" viewBox="0 0 156 47" fill="none" xmlns="http://www.w3.org/2000/svg">
<path d="M2 35.5L11.434 29.5L20.8679 35.5L11.434 11.5L2 35.5Z" fill="#0D2052"/>
<path d="M16.4654 11.5L25.2704 35.5L35.3333 11.5L25.2704 17.5L16.4654 11.5Z" fill="#0085FF"/>
<path d="M50.4933 22.908C51.4373 23.084 52.2133 23.556 52.8213 24.324C53.4293 25.092 53.7333 25.972 53.7333 26.964C53.7333 27.86 53.5093 28.652 53.0613 29.34C52.6293 30.012 51.9973 30.54 51.1653 30.924C50.3333 31.308 49.3493 31.5 48.2133 31.5H40.9893V14.748H47.9013C49.0373 14.748 50.0133 14.932 50.8293 15.3C51.6613 15.668 52.2853 16.18 52.7013 16.836C53.1333 17.492 53.3493 18.236 53.3493 19.068C53.3493 20.044 53.0853 20.86 52.5573 21.516C52.0453 22.172 51.3573 22.636 50.4933 22.908ZM44.3493 21.66H47.4213C48.2213 21.66 48.8373 21.484 49.2693 21.132C49.7013 20.764 49.9173 20.244 49.9173 19.572C49.9173 18.9 49.7013 18.38 49.2693 18.012C48.8373 17.644 48.2213 17.46 47.4213 17.46H44.3493V21.66ZM47.7333 28.764C48.5493 28.764 49.1813 28.572 49.6293 28.188C50.0933 27.804 50.3253 27.26 50.3253 26.556C50.3253 25.836 50.0853 25.276 49.6053 24.876C49.1253 24.46 48.4773 24.252 47.6613 24.252H44.3493V28.764H47.7333ZM58.5712 20.268C59.0032 19.564 59.5632 19.012 60.2512 18.612C60.9552 18.212 61.7552 18.012 62.6512 18.012V21.54H61.7632C60.7072 21.54 59.9072 21.788 59.3632 22.284C58.8352 22.78 58.5712 23.644 58.5712 24.876V31.5H55.2112V18.204H58.5712V20.268ZM62.8503 24.804C62.8503 23.46 63.1143 22.268 63.6423 21.228C64.1863 20.188 64.9143 19.388 65.8263 18.828C66.7543 18.268 67.7863 17.988 68.9223 17.988C69.9143 17.988 70.7783 18.188 71.5143 18.588C72.2663 18.988 72.8663 19.492 73.3143 20.1V18.204H76.6983V31.5H73.3143V29.556C72.8823 30.18 72.2823 30.7 71.5143 31.116C70.7623 31.516 69.8903 31.716 68.8983 31.716C67.7783 31.716 66.7543 31.428 65.8263 30.852C64.9143 30.276 64.1863 29.468 63.6423 28.428C63.1143 27.372 62.8503 26.164 62.8503 24.804ZM73.3143 24.852C73.3143 24.036 73.1543 23.34 72.8343 22.764C72.5143 22.172 72.0823 21.724 71.5383 21.42C70.9943 21.1 70.4103 20.94 69.7863 20.94C69.1623 20.94 68.5863 21.092 68.0583 21.396C67.5303 21.7 67.0983 22.148 66.7623 22.74C66.4423 23.316 66.2823 24.004 66.2823 24.804C66.2823 25.604 66.4423 26.308 66.7623 26.916C67.0983 27.508 67.5303 27.964 68.0583 28.284C68.6023 28.604 69.1783 28.764 69.7863 28.764C70.4103 28.764 70.9943 28.612 71.5383 28.308C72.0823 27.988 72.5143 27.54 72.8343 26.964C73.1543 26.372 73.3143 25.668 73.3143 24.852ZM86.148 18.012C87.732 18.012 89.012 18.516 89.988 19.524C90.964 20.516 91.452 21.908 91.452 23.7V31.5H88.092V24.156C88.092 23.1 87.828 22.292 87.3 21.732C86.772 21.156 86.052 20.868 85.14 20.868C84.212 20.868 83.476 21.156 82.932 21.732C82.404 22.292 82.14 23.1 82.14 24.156V31.5H78.78V18.204H82.14V19.86C82.588 19.284 83.156 18.836 83.844 18.516C84.548 18.18 85.316 18.012 86.148 18.012ZM92.5832 24.804C92.5832 23.46 92.8472 22.268 93.3752 21.228C93.9192 20.188 94.6552 19.388 95.5832 18.828C96.5112 18.268 97.5432 17.988 98.6792 17.988C99.5432 17.988 100.367 18.18 101.151 18.564C101.935 18.932 102.559 19.428 103.023 20.052V13.74H106.431V31.5H103.023V29.532C102.607 30.188 102.023 30.716 101.271 31.116C100.519 31.516 99.6472 31.716 98.6552 31.716C97.5352 31.716 96.5112 31.428 95.5832 30.852C94.6552 30.276 93.9192 29.468 93.3752 28.428C92.8472 27.372 92.5832 26.164 92.5832 24.804ZM103.047 24.852C103.047 24.036 102.887 23.34 102.567 22.764C102.247 22.172 101.815 21.724 101.271 21.42C100.727 21.1 100.143 20.94 99.5192 20.94C98.8952 20.94 98.3192 21.092 97.7912 21.396C97.2632 21.7 96.8312 22.148 96.4952 22.74C96.1752 23.316 96.0152 24.004 96.0152 24.804C96.0152 25.604 96.1752 26.308 96.4952 26.916C96.8312 27.508 97.2632 27.964 97.7912 28.284C98.3352 28.604 98.9112 28.764 99.5192 28.764C100.143 28.764 100.727 28.612 101.271 28.308C101.815 27.988 102.247 27.54 102.567 26.964C102.887 26.372 103.047 25.668 103.047 24.852ZM122.841 31.5H119.481L111.873 20.004V31.5H108.513V14.724H111.873L119.481 26.244V14.724H122.841V31.5ZM124.097 24.804C124.097 23.46 124.361 22.268 124.889 21.228C125.433 20.188 126.161 19.388 127.073 18.828C128.001 18.268 129.033 17.988 130.169 17.988C131.161 17.988 132.025 18.188 132.761 18.588C133.513 18.988 134.113 19.492 134.561 20.1V18.204H137.945V31.5H134.561V29.556C134.129 30.18 133.529 30.7 132.761 31.116C132.009 31.516 131.137 31.716 130.145 31.716C129.025 31.716 128.001 31.428 127.073 30.852C126.161 30.276 125.433 29.468 124.889 28.428C124.361 27.372 124.097 26.164 124.097 24.804ZM134.561 24.852C134.561 24.036 134.401 23.34 134.081 22.764C133.761 22.172 133.329 21.724 132.785 21.42C132.241 21.1 131.657 20.94 131.033 20.94C130.409 20.94 129.833 21.092 129.305 21.396C128.777 21.7 128.345 22.148 128.009 22.74C127.689 23.316 127.529 24.004 127.529 24.804C127.529 25.604 127.689 26.308 128.009 26.916C128.345 27.508 128.777 27.964 129.305 28.284C129.849 28.604 130.425 28.764 131.033 28.764C131.657 28.764 132.241 28.612 132.785 28.308C133.329 27.988 133.761 27.54 134.081 26.964C134.401 26.372 134.561 25.668 134.561 24.852ZM145.571 28.404L148.931 18.204H152.507L147.587 31.5H143.507L138.611 18.204H142.211L145.571 28.404Z" fill="#0D2052"/>
</svg>
