<svg width="205" height="26" viewBox="0 0 205 26" fill="none" xmlns="http://www.w3.org/2000/svg">
<g id="logo 1 ">
<g id="Frame 1000002807" clip-path="url(#clip0_287_262)">
<path id="Vector 1694" d="M24.0559 17.5803C8.73888 22.3686 7.32074 6.19025 14.6671 2.47859C6.7822 1.99692 0.995813 11.2052 5.53367 18.6003C9.74118 25.4569 20.2555 24.9186 24.0559 17.5803Z" fill="#C2C2C2"/>
<ellipse id="Ellipse 1289" cx="12.2532" cy="2.45671" rx="12.2532" ry="2.45671" transform="matrix(0.816953 -0.576704 0.577557 0.81635 0.000213623 20.9653)" stroke="#999999" stroke-width="0.907672"/>
<path id="Vector 1695" d="M5.53367 18.6003C0.995813 11.2052 6.7822 1.99692 14.6671 2.47859C9.92445 4.87475 8.83459 12.4666 12.7789 16.2588L5.53367 18.6003Z" fill="#C2C2C2"/>
</g>
<g id="SENTRY ECOM">
<path d="M38.0922 22.3731C36.7824 22.3731 35.601 22.1451 34.5482 21.6891C33.5036 21.2332 32.6415 20.5824 31.9617 19.7368C31.2902 18.8829 30.8632 17.8715 30.6809 16.7026L33.7897 16.2301C34.0549 17.2912 34.5979 18.1119 35.4187 18.6922C36.2477 19.2725 37.201 19.5627 38.2788 19.5627C38.9171 19.5627 39.5181 19.4632 40.0819 19.2643C40.6456 19.0653 41.1015 18.7751 41.4497 18.3938C41.8062 18.0124 41.9844 17.5441 41.9844 16.9886C41.9844 16.7399 41.943 16.5119 41.8601 16.3047C41.7772 16.0891 41.6528 15.8985 41.487 15.7327C41.3295 15.5669 41.1223 15.4176 40.8653 15.285C40.6166 15.1441 40.3264 15.0239 39.9948 14.9244L35.3689 13.5565C34.971 13.4404 34.5399 13.2871 34.0757 13.0964C33.6197 12.8974 33.1845 12.628 32.77 12.2881C32.3637 11.9399 32.028 11.5005 31.7627 10.97C31.5057 10.4311 31.3772 9.76791 31.3772 8.98035C31.3772 7.82802 31.6674 6.86222 32.2477 6.08295C32.8363 5.29539 33.6238 4.70679 34.6104 4.31715C35.6052 3.92751 36.7078 3.73684 37.9181 3.74513C39.1451 3.75342 40.2394 3.96482 41.201 4.37933C42.1627 4.78554 42.9668 5.37829 43.6135 6.15756C44.2601 6.93683 44.716 7.87776 44.9813 8.98035L41.7606 9.53993C41.628 8.90988 41.371 8.37517 40.9896 7.93579C40.6166 7.48813 40.1565 7.14823 39.6093 6.91611C39.0705 6.68398 38.4943 6.55963 37.8808 6.54305C37.2839 6.53476 36.7285 6.62595 36.2145 6.81662C35.7088 6.99901 35.2985 7.26429 34.9834 7.61248C34.6767 7.96066 34.5233 8.36688 34.5233 8.83113C34.5233 9.2705 34.656 9.63112 34.9213 9.91299C35.1865 10.1866 35.514 10.4063 35.9036 10.5721C36.3016 10.7296 36.7036 10.8622 37.1098 10.97L40.3181 11.8653C40.7575 11.9814 41.2508 12.1389 41.7979 12.3379C42.3451 12.5368 42.8715 12.8145 43.3772 13.171C43.8829 13.5275 44.2974 13.9959 44.6207 14.5762C44.9523 15.1565 45.1181 15.8943 45.1181 16.7897C45.1181 17.7181 44.9233 18.5347 44.5337 19.2394C44.1523 19.9358 43.6342 20.5161 42.9793 20.9803C42.3243 21.4446 41.5741 21.7927 40.7285 22.0249C39.8912 22.257 39.0124 22.3731 38.0922 22.3731ZM48.0585 22V4.09332H59.6232V6.90367H51.0553V11.3182H58.131V14.1285H51.0553V19.1896H59.6232V22H48.0585ZM62.8554 22V4.09332H65.8896L74.1963 16.715V4.09332H77.2305V22H74.1963L65.8896 9.37827V22H62.8554ZM85.258 22V6.90367H79.4632V4.09332H94.0496V6.90367H88.2548V22H85.258ZM96.2866 22V4.09332H103.686C103.86 4.09332 104.083 4.10161 104.357 4.11819C104.631 4.12648 104.883 4.15135 105.116 4.1928C106.152 4.35031 107.006 4.69435 107.677 5.22492C108.357 5.75549 108.859 6.42699 109.182 7.23942C109.514 8.04356 109.679 8.9389 109.679 9.92542C109.679 11.3845 109.31 12.6404 108.573 13.6933C107.835 14.7378 106.703 15.3845 105.178 15.6332L103.897 15.7451H99.2835V22H96.2866ZM106.571 22L103.039 14.713L106.086 14.0415L109.965 22H106.571ZM99.2835 12.9472H103.561C103.727 12.9472 103.914 12.9389 104.121 12.9223C104.328 12.9057 104.519 12.8726 104.693 12.8228C105.19 12.6985 105.58 12.4788 105.862 12.1638C106.152 11.8487 106.355 11.4923 106.471 11.0943C106.595 10.6964 106.658 10.3068 106.658 9.92542C106.658 9.54408 106.595 9.15444 106.471 8.75652C106.355 8.3503 106.152 7.98968 105.862 7.67465C105.58 7.35963 105.19 7.13994 104.693 7.01559C104.519 6.96585 104.328 6.93683 104.121 6.92854C103.914 6.91196 103.727 6.90367 103.561 6.90367H99.2835V12.9472ZM116.966 22V14.6632L110.873 4.09332H114.367L118.483 11.2311L122.587 4.09332H126.081L120 14.6632V22H116.966ZM132.049 22V4.09332H143.614V6.90367H135.046V11.3182H142.122V14.1285H135.046V19.1896H143.614V22H132.049ZM154.037 22.3731C152.246 22.3731 150.712 21.9834 149.436 21.2041C148.159 20.4166 147.177 19.3223 146.488 17.9213C145.809 16.5202 145.469 14.8954 145.469 13.0467C145.469 11.198 145.809 9.57309 146.488 8.17206C147.177 6.77103 148.159 5.68088 149.436 4.9016C150.712 4.11404 152.246 3.72026 154.037 3.72026C156.101 3.72026 157.821 4.23839 159.197 5.27466C160.573 6.30264 161.539 7.69123 162.095 9.44045L159.073 10.2736C158.725 9.1047 158.132 8.19279 157.295 7.53787C156.457 6.87466 155.371 6.54305 154.037 6.54305C152.835 6.54305 151.831 6.81248 151.027 7.35134C150.231 7.8902 149.63 8.64874 149.224 9.62698C148.826 10.5969 148.623 11.7368 148.615 13.0467C148.615 14.3565 148.814 15.5005 149.212 16.4788C149.618 17.4487 150.223 18.2031 151.027 18.742C151.831 19.2808 152.835 19.5503 154.037 19.5503C155.371 19.5503 156.457 19.2187 157.295 18.5555C158.132 17.8922 158.725 16.9803 159.073 15.8197L162.095 16.6529C161.539 18.4021 160.573 19.7948 159.197 20.8311C157.821 21.8591 156.101 22.3731 154.037 22.3731ZM172.895 22.3731C171.105 22.3731 169.571 21.9834 168.294 21.2041C167.018 20.4166 166.035 19.3223 165.347 17.9213C164.667 16.5202 164.328 14.8954 164.328 13.0467C164.328 11.198 164.667 9.57309 165.347 8.17206C166.035 6.77103 167.018 5.68088 168.294 4.9016C169.571 4.11404 171.105 3.72026 172.895 3.72026C174.686 3.72026 176.22 4.11404 177.496 4.9016C178.781 5.68088 179.764 6.77103 180.444 8.17206C181.132 9.57309 181.476 11.198 181.476 13.0467C181.476 14.8954 181.132 16.5202 180.444 17.9213C179.764 19.3223 178.781 20.4166 177.496 21.2041C176.22 21.9834 174.686 22.3731 172.895 22.3731ZM172.895 19.5503C174.097 19.5586 175.096 19.2933 175.892 18.7544C176.696 18.2156 177.297 17.457 177.695 16.4788C178.102 15.5005 178.305 14.3565 178.305 13.0467C178.305 11.7368 178.102 10.6011 177.695 9.63942C177.297 8.66947 176.696 7.91507 175.892 7.37621C175.096 6.83735 174.097 6.55963 172.895 6.54305C171.693 6.53476 170.694 6.80004 169.899 7.3389C169.103 7.87776 168.502 8.63631 168.095 9.61454C167.697 10.5928 167.499 11.7368 167.499 13.0467C167.499 14.3565 167.697 15.4964 168.095 16.4663C168.493 17.428 169.09 18.1782 169.886 18.7171C170.69 19.256 171.693 19.5337 172.895 19.5503ZM184.448 22V4.09332H187.147L193.339 16.7772L199.532 4.09332H202.231V22H199.433V10.5223L193.936 22H192.743L187.259 10.5223V22H184.448Z" fill="#8F8F8F"/>
</g>
</g>
<defs>
<clipPath id="clip0_287_262">
<rect width="24.0533" height="24.0267" fill="white" transform="translate(0.000228882 0.986816)"/>
</clipPath>
</defs>
</svg>
