<svg width="111" height="106" viewBox="0 0 111 106" fill="none" xmlns="http://www.w3.org/2000/svg">
<g id="Icon">
<g id="Fill" filter="url(#filter0_d_174_1894)">
<rect x="20" y="10" width="70.5517" height="66" rx="24" fill="url(#paint0_linear_174_1894)"/>
</g>
<g id="Computer" clip-path="url(#clip0_174_1894)">
<path id="Vector" d="M68.6984 53.0111C70.5318 53.0111 72.0151 51.5111 72.0151 49.6777L72.0318 33.0111C72.0318 31.1777 70.5318 29.6777 68.6984 29.6777H42.0318C40.1984 29.6777 38.6984 31.1777 38.6984 33.0111V49.6777C38.6984 51.5111 40.1984 53.0111 42.0318 53.0111H37.0318C36.1151 53.0111 35.3651 53.7611 35.3651 54.6777C35.3651 55.5944 36.1151 56.3444 37.0318 56.3444H73.6984C74.6151 56.3444 75.3651 55.5944 75.3651 54.6777C75.3651 53.7611 74.6151 53.0111 73.6984 53.0111H68.6984ZM43.6984 33.0111H67.0318C67.9484 33.0111 68.6984 33.7611 68.6984 34.6777V48.0111C68.6984 48.9277 67.9484 49.6777 67.0318 49.6777H43.6984C42.7818 49.6777 42.0318 48.9277 42.0318 48.0111V34.6777C42.0318 33.7611 42.7818 33.0111 43.6984 33.0111Z" fill="white"/>
</g>
</g>
<defs>
<filter id="filter0_d_174_1894" x="0" y="0" width="110.552" height="106" filterUnits="userSpaceOnUse" color-interpolation-filters="sRGB">
<feFlood flood-opacity="0" result="BackgroundImageFix"/>
<feColorMatrix in="SourceAlpha" type="matrix" values="0 0 0 0 0 0 0 0 0 0 0 0 0 0 0 0 0 0 127 0" result="hardAlpha"/>
<feMorphology radius="2" operator="erode" in="SourceAlpha" result="effect1_dropShadow_174_1894"/>
<feOffset dy="10"/>
<feGaussianBlur stdDeviation="11"/>
<feColorMatrix type="matrix" values="0 0 0 0 0.427083 0 0 0 0 0.671455 0 0 0 0 1 0 0 0 0.36 0"/>
<feBlend mode="normal" in2="BackgroundImageFix" result="effect1_dropShadow_174_1894"/>
<feBlend mode="normal" in="SourceGraphic" in2="effect1_dropShadow_174_1894" result="shape"/>
</filter>
<linearGradient id="paint0_linear_174_1894" x1="34.431" y1="10" x2="64.5976" y2="77.5653" gradientUnits="userSpaceOnUse">
<stop stop-color="#5CA1FE"/>
<stop offset="1" stop-color="#217BF4"/>
</linearGradient>
<clipPath id="clip0_174_1894">
<rect width="40" height="40" fill="white" transform="translate(35.3651 23.0107)"/>
</clipPath>
</defs>
</svg>
