<svg width="111" height="106" viewBox="0 0 111 106" fill="none" xmlns="http://www.w3.org/2000/svg">
<g filter="url(#filter0_d_174_1869)">
<rect x="20" y="10" width="70.5517" height="66" rx="24" fill="url(#paint0_linear_174_1869)"/>
</g>
<g clip-path="url(#clip0_174_1869)">
<path d="M55.276 26.3438C46.076 26.3438 38.6094 33.8104 38.6094 43.0104C38.6094 52.2104 46.076 59.6771 55.276 59.6771C64.476 59.6771 71.9427 52.2104 71.9427 43.0104C71.9427 33.8104 64.476 26.3438 55.276 26.3438ZM49.8594 45.8104C49.6427 46.5271 48.826 46.8604 48.1594 46.5604C47.5927 46.2937 47.3094 45.6604 47.4927 45.0604C47.6927 44.3771 47.7927 43.6771 47.776 42.9937C47.7594 42.3104 47.676 41.6604 47.4927 41.0271C47.326 40.4271 47.5927 39.7771 48.1594 39.5271C48.8594 39.2104 49.676 39.5937 49.8927 40.3437C50.1427 41.1937 50.2594 42.0604 50.276 42.9604C50.276 43.8937 50.1427 44.8604 49.8594 45.8104ZM55.0927 48.4604C54.8094 49.1438 53.976 49.4104 53.326 49.0437C52.776 48.7271 52.5594 48.0604 52.7927 47.4771C53.3427 46.1938 53.6094 44.7604 53.6094 43.2104C53.6094 41.6104 53.3094 40.0604 52.726 38.5771C52.4927 37.9771 52.7594 37.3104 53.326 37.0104C53.976 36.6771 54.776 36.9771 55.0427 37.6604C55.7427 39.4271 56.0927 41.2937 56.0927 43.2104C56.126 45.0938 55.776 46.8604 55.0927 48.4604ZM60.276 50.6771C59.9927 51.3438 59.2094 51.6437 58.576 51.3271C57.9927 51.0437 57.7094 50.3438 57.9594 49.7438C58.9427 47.4271 59.4427 45.1604 59.4427 42.9771C59.4427 40.7937 58.9427 38.5604 57.976 36.2937C57.7094 35.6937 57.9927 34.9937 58.576 34.7104C59.226 34.3771 59.9927 34.6771 60.276 35.3438C61.376 37.9104 61.9427 40.4771 61.9427 42.9771C61.9427 45.4771 61.376 48.0771 60.276 50.6771Z" fill="white"/>
</g>
<defs>
<filter id="filter0_d_174_1869" x="0" y="0" width="110.552" height="106" filterUnits="userSpaceOnUse" color-interpolation-filters="sRGB">
<feFlood flood-opacity="0" result="BackgroundImageFix"/>
<feColorMatrix in="SourceAlpha" type="matrix" values="0 0 0 0 0 0 0 0 0 0 0 0 0 0 0 0 0 0 127 0" result="hardAlpha"/>
<feMorphology radius="2" operator="erode" in="SourceAlpha" result="effect1_dropShadow_174_1869"/>
<feOffset dy="10"/>
<feGaussianBlur stdDeviation="11"/>
<feColorMatrix type="matrix" values="0 0 0 0 0.427083 0 0 0 0 0.671455 0 0 0 0 1 0 0 0 0.36 0"/>
<feBlend mode="normal" in2="BackgroundImageFix" result="effect1_dropShadow_174_1869"/>
<feBlend mode="normal" in="SourceGraphic" in2="effect1_dropShadow_174_1869" result="shape"/>
</filter>
<linearGradient id="paint0_linear_174_1869" x1="34.431" y1="10" x2="64.5976" y2="77.5653" gradientUnits="userSpaceOnUse">
<stop stop-color="#5CA1FE"/>
<stop offset="1" stop-color="#217BF4"/>
</linearGradient>
<clipPath id="clip0_174_1869">
<rect width="40" height="40" fill="white" transform="translate(35.2773 23.0107)"/>
</clipPath>
</defs>
</svg>
