<svg width="111" height="106" viewBox="0 0 111 106" fill="none" xmlns="http://www.w3.org/2000/svg">
<g id="Icon">
<g id="Fill" filter="url(#filter0_d_174_1880)">
<rect x="20" y="10" width="70.5517" height="66" rx="24" fill="url(#paint0_linear_174_1880)"/>
</g>
<g id="Home repair service" clip-path="url(#clip0_174_1880)">
<g id="Group">
<g id="Group_2">
<g id="Group_3">
<path id="Vector" d="M64.0781 49.6774C63.1615 49.6774 62.4115 48.9274 62.4115 48.0107H49.0781C49.0781 48.9274 48.3281 49.6774 47.4115 49.6774C46.4948 49.6774 45.7448 48.9274 45.7448 48.0107H39.0781V53.0107C39.0781 54.8441 40.5781 56.3441 42.4115 56.3441H69.0781C70.9115 56.3441 72.4115 54.8441 72.4115 53.0107V48.0107H65.7448C65.7448 48.9274 64.9948 49.6774 64.0781 49.6774Z" fill="white"/>
</g>
<path id="Vector_2" d="M69.0781 36.3444H64.0781V33.0111C64.0781 31.1777 62.5781 29.6777 60.7448 29.6777H50.7448C48.9115 29.6777 47.4115 31.1777 47.4115 33.0111V36.3444H42.4115C40.5781 36.3444 39.0781 37.8444 39.0781 39.6777V46.3444H45.7448V44.6777C45.7448 43.7611 46.4948 43.0111 47.4115 43.0111C48.3281 43.0111 49.0781 43.7611 49.0781 44.6777V46.3444H62.4115V44.6777C62.4115 43.7611 63.1615 43.0111 64.0781 43.0111C64.9948 43.0111 65.7448 43.7611 65.7448 44.6777V46.3444H72.4115V39.6777C72.4115 37.8444 70.9115 36.3444 69.0781 36.3444ZM60.7448 36.3444H50.7448V33.0111H60.7448V36.3444Z" fill="white"/>
</g>
</g>
</g>
</g>
<defs>
<filter id="filter0_d_174_1880" x="0" y="0" width="110.552" height="106" filterUnits="userSpaceOnUse" color-interpolation-filters="sRGB">
<feFlood flood-opacity="0" result="BackgroundImageFix"/>
<feColorMatrix in="SourceAlpha" type="matrix" values="0 0 0 0 0 0 0 0 0 0 0 0 0 0 0 0 0 0 127 0" result="hardAlpha"/>
<feMorphology radius="2" operator="erode" in="SourceAlpha" result="effect1_dropShadow_174_1880"/>
<feOffset dy="10"/>
<feGaussianBlur stdDeviation="11"/>
<feColorMatrix type="matrix" values="0 0 0 0 0.427083 0 0 0 0 0.671455 0 0 0 0 1 0 0 0 0.36 0"/>
<feBlend mode="normal" in2="BackgroundImageFix" result="effect1_dropShadow_174_1880"/>
<feBlend mode="normal" in="SourceGraphic" in2="effect1_dropShadow_174_1880" result="shape"/>
</filter>
<linearGradient id="paint0_linear_174_1880" x1="34.431" y1="10" x2="64.5976" y2="77.5653" gradientUnits="userSpaceOnUse">
<stop stop-color="#5CA1FE"/>
<stop offset="1" stop-color="#217BF4"/>
</linearGradient>
<clipPath id="clip0_174_1880">
<rect width="40" height="40" fill="white" transform="translate(35.7461 23.0107)"/>
</clipPath>
</defs>
</svg>
