<svg width="111" height="106" viewBox="0 0 111 106" fill="none" xmlns="http://www.w3.org/2000/svg">
<g filter="url(#filter0_d_174_1851)">
<rect x="20" y="10" width="70.5517" height="66" rx="24" fill="url(#paint0_linear_174_1851)"/>
</g>
<g clip-path="url(#clip0_174_1851)">
<path d="M55.3488 30.9941C48.867 30.9941 43.5938 36.2675 43.5938 42.7492C43.5938 49.2309 48.867 54.5043 55.3488 54.5043C61.8306 54.5043 67.1039 49.231 67.1039 42.7492C67.1039 36.2674 61.8306 30.9941 55.3488 30.9941ZM56.2482 46.7119V47.922H54.7111V46.7663C53.6209 46.7009 52.5634 46.4066 51.9094 46.0032L52.7379 44.1281C53.4573 44.5533 54.4167 44.8259 55.2562 44.8259C55.9866 44.8259 56.2482 44.6732 56.2482 44.4116C56.2482 43.4523 52.0293 44.2262 52.0293 41.3809C52.0293 40.149 52.9232 39.1134 54.7111 38.8627V37.6744H56.2482V38.8409C57.0549 38.9172 57.8398 39.1243 58.4612 39.4732L57.6872 41.3373C56.935 40.9558 56.2264 40.7705 55.5614 40.7705C54.8092 40.7705 54.5694 40.9884 54.5694 41.2502C54.5694 42.1659 58.7883 41.4027 58.7883 44.2154C58.7883 45.3927 57.938 46.4175 56.2482 46.7119Z" fill="white"/>
<path d="M75.2278 40.5762L72.8966 40.8338C73.3325 44.7776 72.399 48.8091 70.2679 52.1858C68.1073 55.6091 64.7992 58.2039 60.9529 59.4923C59.1116 60.109 57.22 60.4045 55.3466 60.4043C49.9387 60.404 44.6903 57.9405 41.2987 53.6348H43.6209V51.2893H37.3496V57.8495H39.6951V55.3791C41.9316 58.1023 44.8957 60.2258 48.261 61.4785C50.535 62.3251 52.9338 62.7495 55.3296 62.7495C57.4859 62.7495 59.64 62.4055 61.6978 61.7163C66.0551 60.2568 69.803 57.3167 72.2512 53.4377C74.6648 49.6134 75.722 45.0459 75.2278 40.5762Z" fill="white"/>
<path d="M40.3438 33.4604C42.5042 29.9698 45.8416 27.3281 49.7412 26.0218C53.5388 24.7498 57.5337 24.7902 61.2945 26.139C64.2313 27.1922 66.8495 29.0208 68.8468 31.3831L66.6116 31.3823L66.6108 33.7278L72.9516 33.7299V27.4631H70.6061V29.8322C68.3476 27.1749 65.3954 25.118 62.0863 23.9312C57.8249 22.403 53.2984 22.3568 48.9964 23.7978C44.5787 25.2776 40.7976 28.2708 38.3495 32.2259C35.9333 36.1297 34.9249 40.7733 35.5099 45.3013L37.836 45.0008C37.3198 41.0056 38.2104 36.9072 40.3438 33.4604Z" fill="white"/>
</g>
<defs>
<filter id="filter0_d_174_1851" x="0" y="0" width="110.552" height="106" filterUnits="userSpaceOnUse" color-interpolation-filters="sRGB">
<feFlood flood-opacity="0" result="BackgroundImageFix"/>
<feColorMatrix in="SourceAlpha" type="matrix" values="0 0 0 0 0 0 0 0 0 0 0 0 0 0 0 0 0 0 127 0" result="hardAlpha"/>
<feMorphology radius="2" operator="erode" in="SourceAlpha" result="effect1_dropShadow_174_1851"/>
<feOffset dy="10"/>
<feGaussianBlur stdDeviation="11"/>
<feColorMatrix type="matrix" values="0 0 0 0 0.427083 0 0 0 0 0.671455 0 0 0 0 1 0 0 0 0.36 0"/>
<feBlend mode="normal" in2="BackgroundImageFix" result="effect1_dropShadow_174_1851"/>
<feBlend mode="normal" in="SourceGraphic" in2="effect1_dropShadow_174_1851" result="shape"/>
</filter>
<linearGradient id="paint0_linear_174_1851" x1="34.431" y1="10" x2="64.5976" y2="77.5653" gradientUnits="userSpaceOnUse">
<stop stop-color="#5CA1FE"/>
<stop offset="1" stop-color="#217BF4"/>
</linearGradient>
<clipPath id="clip0_174_1851">
<rect width="40" height="40" fill="white" transform="translate(35.3477 22.75)"/>
</clipPath>
</defs>
</svg>
